<svg xmlns="http://www.w3.org/2000/svg" version="1.1" xmlns:xlink="http://www.w3.org/1999/xlink" width="1000" height="1000"><g clip-path="url(#SvgjsClipPath1041)"><rect width="1000" height="1000" fill="#ffffff"></rect><g transform="matrix(1.38264777048047,0,0,1.38264777048047,100,400.24196335983413)"><svg xmlns="http://www.w3.org/2000/svg" version="1.1" xmlns:xlink="http://www.w3.org/1999/xlink" width="578.6" height="144.3"><svg id="Livello_2" data-name="Livello 2" xmlns="http://www.w3.org/2000/svg" viewBox="0 0 578.6 144.3">
  <defs>
    <style>
      .cls-1 {
        fill: #10a984;
      }

      .cls-2 {
        fill: #7e838e;
      }

      .cls-3 {
        fill: #12284c;
      }
    </style>
  <clipPath id="SvgjsClipPath1041"><rect width="1000" height="1000" x="0" y="0" rx="350" ry="350"></rect></clipPath></defs>
  <g id="Livello_1-2" data-name="Livello 1">
    <path class="cls-3" d="M57.2,84.1l-15.3-22.1h-16.9v22.1H6.6V4.7h34.4c7,0,13.1,1.2,18.3,3.5s9.2,5.7,12,10,4.2,9.4,4.2,15.3-1.4,11-4.3,15.3c-2.8,4.3-6.9,7.5-12.1,9.8l17.8,25.5h-19.7,0ZM56.8,33.6c0-4.5-1.4-7.9-4.3-10.3-2.9-2.4-7.1-3.6-12.6-3.6h-15v27.7h15c5.5,0,9.7-1.2,12.6-3.6s4.3-5.8,4.3-10.2h0Z"></path>
    <path class="cls-3" d="M148.4,53.9c0,.2-.1,1.8-.3,4.8h-46.1c.8,3.8,2.8,6.8,5.9,9,3.1,2.2,6.9,3.3,11.6,3.3s6-.5,8.4-1.4c2.5-.9,4.8-2.4,6.9-4.5l9.4,10.2c-5.8,6.6-14.1,9.9-25.2,9.9s-13-1.3-18.3-4-9.4-6.4-12.3-11.2c-2.9-4.8-4.3-10.2-4.3-16.2s1.4-11.4,4.3-16.1c2.8-4.8,6.7-8.5,11.7-11.2s10.5-4,16.6-4,11.4,1.3,16.2,3.9,8.6,6.3,11.4,11.1c2.8,4.8,4.1,10.4,4.1,16.7v-.3ZM116.8,35.6c-4,0-7.4,1.1-10.1,3.4-2.7,2.3-4.4,5.4-5,9.3h30c-.6-3.9-2.3-6.9-5-9.3-2.7-2.3-6.1-3.5-10-3.5l.1.1Z"></path>
    <path class="cls-3" d="M197.3,22.2c7.6,0,13.7,2.3,18.3,6.8,4.7,4.5,7,11.3,7,20.2v34.9h-17.7v-32.2c0-4.8-1.1-8.4-3.2-10.8-2.1-2.4-5.2-3.6-9.2-3.6s-8,1.4-10.7,4.1c-2.6,2.8-4,6.8-4,12.3v30.2h-17.7V0h17.7v29.5c2.3-2.3,5.2-4.1,8.5-5.4s7-1.9,10.9-1.9h.1Z"></path>
    <path class="cls-3" d="M263.2,22.2c9.4,0,16.7,2.3,21.8,6.8,5.1,4.5,7.6,11.3,7.6,20.4v34.8h-16.6v-7.6c-3.3,5.7-9.5,8.5-18.6,8.5s-8.7-.8-12.2-2.4c-3.4-1.6-6.1-3.8-7.9-6.6s-2.7-6-2.7-9.5c0-5.7,2.1-10.1,6.4-13.4,4.3-3.3,10.9-4.9,19.8-4.9h14.1c0-3.9-1.2-6.8-3.5-8.9-2.3-2.1-5.9-3.1-10.5-3.1s-6.4.5-9.6,1.5c-3.1,1-5.8,2.4-8,4.1l-6.4-12.4c3.3-2.3,7.3-4.2,12-5.4,4.7-1.3,9.4-1.9,14.4-1.9h-.1ZM261.8,73.1c3,0,5.7-.7,8-2.1,2.3-1.4,4-3.5,5-6.2v-6.3h-12.1c-7.3,0-10.9,2.4-10.9,7.1s.9,4.1,2.7,5.4c1.8,1.3,4.2,2,7.3,2v.1Z"></path>
    <path class="cls-3" d="M344.6,22.2c5.7,0,10.8,1.3,15.5,3.9s8.3,6.3,10.9,11c2.7,4.7,4,10.2,4,16.5s-1.3,11.8-4,16.5c-2.6,4.7-6.3,8.4-10.9,11s-9.8,3.9-15.5,3.9c-8.4,0-14.8-2.6-19.2-7.9v7h-16.9V0h17.7v29.6c4.5-4.9,10.6-7.4,18.4-7.4h0ZM341.5,70.5c4.5,0,8.2-1.5,11.1-4.6s4.4-7.2,4.4-12.3-1.5-9.2-4.4-12.3-6.6-4.6-11.1-4.6-8.3,1.5-11.2,4.6c-2.9,3.1-4.4,7.2-4.4,12.3s1.4,9.2,4.4,12.3c2.9,3.1,6.6,4.6,11.2,4.6Z"></path>
    <path class="cls-1" d="M452.2,37.1c7,1.1,12.3,3.7,16,7.8,3.7,4,5.6,9.1,5.6,15s-1.2,8.9-3.6,12.8c-2.4,3.9-6.1,7-11.1,9.4-4.9,2.3-11,3.5-18.2,3.5s-11.1-.7-16.5-2.2c-5.4-1.5-10-3.6-13.8-6.3l7.1-14.1c3,2.3,6.5,4,10.5,5.3,4,1.3,8,1.9,12.2,1.9s8.2-.9,10.9-2.7,4-4.3,4-7.5c0-6.5-5-9.8-14.9-9.8h-8.4v-12.1l16.3-18.5h-33.8V4.9h55.6v11.9l-17.9,20.4v-.1Z"></path>
    <path class="cls-1" d="M492.7,85.1c-3.1,0-5.7-1.1-7.8-3.2-2.1-2.1-3.2-4.8-3.2-8s1.1-5.9,3.2-7.9c2.1-2,4.7-3,7.8-3s5.7,1,7.8,3,3.2,4.6,3.2,7.9-1.1,5.8-3.2,8c-2.1,2.1-4.7,3.2-7.8,3.2Z"></path>
    <path class="cls-1" d="M544.5,85.5c-6.6,0-12.4-1.6-17.6-4.9-5.1-3.3-9.2-7.9-12.1-14.1-2.9-6.2-4.4-13.5-4.4-22.1s1.4-15.9,4.4-22c2.9-6.2,6.9-10.9,12.1-14.1,5.2-3.3,11-4.9,17.6-4.9s12.4,1.6,17.6,4.9c5.1,3.3,9.2,8,12.1,14.1,2.9,6.2,4.4,13.5,4.4,22s-1.5,15.9-4.4,22.1c-2.9,6.2-6.9,10.9-12.1,14.1-5.1,3.3-11,4.9-17.6,4.9ZM544.5,70c4.8,0,8.6-2.1,11.4-6.2,2.8-4.2,4.1-10.6,4.1-19.3s-1.4-15.1-4.1-19.3c-2.8-4.2-6.6-6.3-11.4-6.3s-8.5,2.1-11.3,6.3c-2.8,4.2-4.1,10.6-4.1,19.3s1.4,15.1,4.1,19.3c2.8,4.2,6.5,6.2,11.3,6.2Z"></path>
    <path class="cls-2" d="M19.6,144.3c-3.7,0-7.1-.8-10.1-2.5s-5.3-3.9-7-6.8c-1.7-2.9-2.5-6.1-2.5-9.7s.8-6.8,2.5-9.7,4-5.1,7-6.8,6.4-2.5,10.1-2.5,7,.8,10,2.5c3,1.6,5.3,3.9,7,6.8,1.7,2.9,2.6,6.1,2.6,9.7s-.9,6.8-2.6,9.8c-1.7,2.9-4.1,5.2-7,6.8-3,1.6-6.3,2.4-10,2.4ZM19.6,140.8c3,0,5.6-.7,8-2s4.3-3.2,5.6-5.5c1.3-2.4,2-5,2-7.9s-.7-5.6-2-7.9c-1.3-2.4-3.2-4.2-5.6-5.5s-5-2-8-2-5.6.7-8,2-4.3,3.2-5.7,5.5c-1.4,2.4-2,5-2,7.9s.7,5.6,2,7.9c1.4,2.4,3.3,4.2,5.7,5.5,2.4,1.3,5.1,2,8,2Z"></path>
    <path class="cls-2" d="M53.1,121.4c.9-1.9,2.2-3.3,4-4.3s3.9-1.4,6.5-1.4v3.7h-.9c-2.9,0-5.3.8-6.9,2.7-1.7,1.8-2.5,4.3-2.5,7.6v14.3h-3.8v-28.1h3.6v5.5h0Z"></path>
    <path class="cls-2" d="M87.9,142.3c-.7.6-1.6,1.1-2.7,1.5-1,.3-2.1.5-3.3.5-2.6,0-4.7-.7-6.1-2.1-1.4-1.4-2.1-3.4-2.1-6v-17h-5v-3.2h5v-6.1h3.8v6.1h8.5v3.2h-8.5v16.8c0,1.7.4,2.9,1.3,3.8s2,1.3,3.6,1.3,1.5-.1,2.3-.4c.7-.3,1.4-.6,1.9-1.1l1.3,2.7Z"></path>
    <path class="cls-2" d="M121.4,131.1h-23.5c.2,2.9,1.3,5.3,3.4,7.1,2,1.8,4.6,2.7,7.7,2.7s3.4-.3,4.8-.9,2.7-1.5,3.8-2.8l2.1,2.5c-1.3,1.5-2.8,2.6-4.7,3.4-1.9.8-3.9,1.2-6.2,1.2s-5.4-.6-7.6-1.8c-2.2-1.2-4-2.9-5.2-5.1-1.2-2.2-1.9-4.6-1.9-7.4s.6-5.2,1.8-7.4,2.8-3.9,4.9-5.1,4.4-1.8,7-1.8,4.9.6,7,1.8,3.7,2.9,4.9,5c1.2,2.2,1.8,4.6,1.8,7.4v1.2h-.1ZM107.9,119c-2.7,0-5,.9-6.8,2.6-1.8,1.7-2.9,4-3.1,6.7h19.9c-.3-2.8-1.3-5-3.1-6.7s-4.1-2.6-6.8-2.6h-.1Z"></path>
    <path class="cls-2" d="M138.9,144.3c-2.3,0-4.4-.3-6.5-1s-3.7-1.5-4.9-2.5l1.7-3c1.2.9,2.7,1.7,4.4,2.3,1.8.6,3.6.9,5.5.9s4.5-.4,5.7-1.2,1.8-1.9,1.8-3.4-.3-1.8-1-2.4c-.7-.6-1.5-1-2.6-1.3-1-.3-2.4-.6-4.1-.9-2.3-.4-4.1-.9-5.5-1.3-1.4-.4-2.6-1.2-3.6-2.3s-1.5-2.5-1.5-4.4,1-4.3,2.9-5.8c2-1.5,4.7-2.3,8.2-2.3s3.6.2,5.4.7c1.8.5,3.3,1.1,4.5,1.9l-1.7,3c-2.3-1.6-5.1-2.4-8.3-2.4s-4.2.4-5.5,1.3c-1.2.8-1.8,2-1.8,3.4s.3,1.9,1,2.6c.7.6,1.6,1.1,2.6,1.4,1,.3,2.4.6,4.3.9,2.2.4,4,.8,5.4,1.3,1.4.4,2.5,1.2,3.5,2.2s1.4,2.5,1.4,4.3-1,4.4-3.1,5.8c-2,1.4-4.9,2.2-8.5,2.2h.3Z"></path>
    <path class="cls-2" d="M159.7,115.9h3.8v28.1h-3.8v-28.1ZM161.7,109.8c-.8,0-1.4-.3-2-.8-.5-.5-.8-1.2-.8-1.9s.3-1.3.8-1.9c.5-.5,1.2-.8,2-.8s1.4.3,2,.8c.5.5.8,1.1.8,1.8s-.3,1.4-.8,2c-.5.5-1.2.8-2,.8h0Z"></path>
    <path class="cls-2" d="M218.8,144l-8.5-12c-1,.1-2,.2-3,.2h-10v11.8h-3.9v-37.3h14c4.8,0,8.5,1.1,11.2,3.4,2.7,2.3,4.1,5.4,4.1,9.4s-.7,5.4-2.2,7.4-3.6,3.5-6.3,4.4l9.1,12.8h-4.3l-.2-.1ZM207.2,128.8c3.7,0,6.5-.8,8.5-2.4,2-1.6,2.9-3.9,2.9-6.9s-1-5.3-2.9-6.9c-1.9-1.6-4.8-2.4-8.5-2.4h-9.9v18.7h9.9v-.1Z"></path>
    <path class="cls-2" d="M233.3,115.9h3.8v28.1h-3.8v-28.1ZM235.3,109.8c-.8,0-1.4-.3-2-.8-.5-.5-.8-1.2-.8-1.9s.3-1.3.8-1.9c.5-.5,1.2-.8,2-.8s1.4.3,2,.8c.5.5.8,1.1.8,1.8s-.3,1.4-.8,2c-.5.5-1.2.8-2,.8h0Z"></path>
    <path class="cls-2" d="M259.7,115.7c3.7,0,6.5.9,8.4,2.8s2.9,4.5,2.9,8.1v17.4h-3.6v-4.4c-.9,1.5-2.1,2.6-3.8,3.4-1.7.8-3.6,1.2-5.9,1.2s-5.6-.7-7.5-2.2c-1.8-1.5-2.8-3.5-2.8-5.9s.9-4.3,2.6-5.8,4.5-2.2,8.2-2.2h8.9v-1.7c0-2.4-.7-4.3-2-5.5-1.3-1.3-3.3-1.9-5.9-1.9s-3.5.3-5.1.9c-1.6.6-3,1.4-4.2,2.4l-1.7-2.8c1.4-1.2,3.1-2.1,5.1-2.8s4.1-1,6.3-1h.1ZM258.4,141.3c2.1,0,4-.5,5.5-1.5s2.7-2.4,3.4-4.2v-4.6h-8.8c-4.8,0-7.2,1.7-7.2,5s.6,2.9,1.9,3.9c1.3.9,3,1.4,5.2,1.4h0Z"></path>
    <path class="cls-2" d="M298.1,115.7c2.6,0,5,.6,7.1,1.8s3.8,2.9,5,5,1.8,4.6,1.8,7.4-.6,5.2-1.8,7.4c-1.2,2.2-2.9,3.9-5,5.1-2.1,1.2-4.5,1.8-7.1,1.8s-4.5-.5-6.3-1.5c-1.9-1-3.4-2.4-4.5-4.3v5.5h-3.6v-39.6h3.8v16.9c1.2-1.8,2.7-3.2,4.5-4.1,1.8-.9,3.9-1.4,6.2-1.4h-.1ZM297.8,140.9c2,0,3.7-.4,5.3-1.4,1.6-.9,2.9-2.2,3.8-3.9s1.4-3.6,1.4-5.7-.5-4-1.4-5.7-2.2-3-3.8-3.9c-1.6-.9-3.4-1.4-5.3-1.4s-3.8.5-5.4,1.4-2.8,2.2-3.7,3.9c-.9,1.7-1.4,3.6-1.4,5.7s.4,4,1.4,5.7c.9,1.7,2.1,3,3.7,3.9s3.4,1.4,5.4,1.4Z"></path>
    <path class="cls-2" d="M322,115.9h3.8v28.1h-3.8v-28.1ZM323.9,109.8c-.8,0-1.4-.3-2-.8-.5-.5-.8-1.2-.8-1.9s.3-1.3.8-1.9c.5-.5,1.2-.8,2-.8s1.4.3,2,.8c.5.5.8,1.1.8,1.8s-.3,1.4-.8,2c-.5.5-1.2.8-2,.8h0Z"></path>
    <path class="cls-2" d="M338.6,104.4h3.8v39.6h-3.8v-39.6Z"></path>
    <path class="cls-2" d="M355.2,115.9h3.8v28.1h-3.8v-28.1ZM357.1,109.8c-.8,0-1.4-.3-2-.8-.5-.5-.8-1.2-.8-1.9s.3-1.3.8-1.9c.5-.5,1.2-.8,2-.8s1.4.3,2,.8c.5.5.8,1.1.8,1.8s-.3,1.4-.8,2c-.5.5-1.2.8-2,.8h0Z"></path>
    <path class="cls-2" d="M386.6,142.3c-.7.6-1.6,1.1-2.7,1.5-1,.3-2.1.5-3.3.5-2.6,0-4.7-.7-6.1-2.1-1.4-1.4-2.1-3.4-2.1-6v-17h-5v-3.2h5v-6.1h3.8v6.1h8.5v3.2h-8.5v16.8c0,1.7.4,2.9,1.3,3.8s2,1.3,3.6,1.3,1.5-.1,2.3-.4c.7-.3,1.4-.6,1.9-1.1l1.3,2.7h0Z"></path>
    <path class="cls-2" d="M405.5,115.7c3.7,0,6.5.9,8.4,2.8s2.9,4.5,2.9,8.1v17.4h-3.6v-4.4c-.9,1.5-2.1,2.6-3.8,3.4-1.7.8-3.6,1.2-5.9,1.2s-5.6-.7-7.5-2.2c-1.8-1.5-2.8-3.5-2.8-5.9s.9-4.3,2.6-5.8,4.5-2.2,8.2-2.2h8.9v-1.7c0-2.4-.7-4.3-2-5.5-1.3-1.3-3.3-1.9-5.9-1.9s-3.5.3-5.1.9c-1.6.6-3,1.4-4.2,2.4l-1.7-2.8c1.4-1.2,3.1-2.1,5.1-2.8s4.1-1,6.3-1h.1ZM404.1,141.3c2.1,0,4-.5,5.5-1.5s2.7-2.4,3.4-4.2v-4.6h-8.8c-4.8,0-7.2,1.7-7.2,5s.6,2.9,1.9,3.9c1.3.9,3,1.4,5.2,1.4h0Z"></path>
    <path class="cls-2" d="M449.2,140.8v3.1h-22.8v-2.5l17.6-22.4h-17.3v-3.2h22.2v2.5l-17.7,22.4h18v.1Z"></path>
    <path class="cls-2" d="M458.9,115.9h3.8v28.1h-3.8v-28.1ZM460.8,109.8c-.8,0-1.4-.3-2-.8-.5-.5-.8-1.2-.8-1.9s.3-1.3.8-1.9c.5-.5,1.2-.8,2-.8s1.4.3,2,.8c.5.5.8,1.1.8,1.8s-.3,1.4-.8,2c-.5.5-1.2.8-2,.8h0Z"></path>
    <path class="cls-2" d="M486.9,144.3c-2.7,0-5.1-.6-7.3-1.8s-3.9-2.9-5.1-5.1c-1.2-2.2-1.9-4.6-1.9-7.4s.6-5.2,1.9-7.4c1.3-2.2,3-3.9,5.1-5.1s4.6-1.8,7.3-1.8,5.1.6,7.3,1.8,3.9,2.9,5.1,5.1c1.2,2.2,1.8,4.6,1.8,7.4s-.6,5.2-1.8,7.4-2.9,3.9-5.1,5.1c-2.2,1.2-4.6,1.8-7.3,1.8ZM486.9,140.9c2,0,3.8-.4,5.4-1.4,1.6-.9,2.8-2.2,3.7-3.9s1.3-3.6,1.3-5.7-.4-4-1.3-5.7c-.9-1.7-2.1-3-3.7-3.9-1.6-.9-3.4-1.4-5.4-1.4s-3.8.5-5.4,1.4c-1.6.9-2.8,2.2-3.7,3.9s-1.4,3.6-1.4,5.7.4,4,1.4,5.7c.9,1.7,2.2,3,3.7,3.9,1.6.9,3.4,1.4,5.4,1.4Z"></path>
    <path class="cls-2" d="M525.4,115.7c3.5,0,6.3,1,8.4,3.1,2.1,2,3.1,5,3.1,8.9v16.3h-3.8v-15.9c0-2.9-.7-5.1-2.2-6.7-1.5-1.5-3.5-2.3-6.3-2.3s-5.4.9-7.2,2.7-2.6,4.3-2.6,7.4v14.7h-3.8v-28.1h3.6v5.2c1-1.7,2.4-3,4.3-4,1.8-.9,4-1.4,6.4-1.4l.1.1Z"></path>
    <path class="cls-2" d="M573.9,131.1h-23.5c.2,2.9,1.3,5.3,3.4,7.1,2,1.8,4.6,2.7,7.7,2.7s3.4-.3,4.8-.9,2.7-1.5,3.8-2.8l2.1,2.5c-1.3,1.5-2.8,2.6-4.7,3.4-1.9.8-3.9,1.2-6.2,1.2s-5.4-.6-7.6-1.8c-2.2-1.2-4-2.9-5.2-5.1-1.2-2.2-1.9-4.6-1.9-7.4s.6-5.2,1.8-7.4,2.8-3.9,4.9-5.1,4.4-1.8,7-1.8,4.9.6,7,1.8,3.7,2.9,4.9,5c1.2,2.2,1.8,4.6,1.8,7.4v1.2h-.1ZM560.4,119c-2.7,0-5,.9-6.8,2.6-1.8,1.7-2.9,4-3.1,6.7h19.9c-.3-2.8-1.3-5-3.1-6.7s-4.1-2.6-6.8-2.6h-.1Z"></path>
  </g>
</svg></svg></g></g></svg>